<svg width="13" height="16" viewBox="0 0 13 16" fill="none" xmlns="http://www.w3.org/2000/svg">
<path fill-rule="evenodd" clip-rule="evenodd" d="M12.3896 11.768L12.5816 12.68C12.7635 13.4684 12.5839 14.297 12.0917 14.9393C11.5995 15.5816 10.8462 15.9706 10.0376 16H2.61359C1.80493 15.9706 1.05164 15.5816 0.559466 14.9393C0.0672886 14.297 -0.112359 13.4684 0.0695881 12.68L0.261588 11.768C0.482416 10.5334 1.54369 9.62613 2.79759 9.59998H9.85359C11.1075 9.62613 12.1688 10.5334 12.3896 11.768ZM10.0377 14.7917C10.4439 14.787 10.8262 14.5988 11.0777 14.2797V14.2877C11.3862 13.9006 11.5064 13.3963 11.4057 12.9117L11.2137 11.9997C11.1072 11.3238 10.5374 10.8177 9.85368 10.7917H2.79769C2.11398 10.8177 1.54422 11.3238 1.43769 11.9997L1.24569 12.9117C1.14741 13.3938 1.2675 13.8946 1.57369 14.2797C1.82515 14.5988 2.20745 14.787 2.61369 14.7917H10.0377Z" fill="#A69483"/>
<path fill-rule="evenodd" clip-rule="evenodd" d="M6.72554 8.00001H5.92554C4.15823 8.00001 2.72554 6.56732 2.72554 4.80001V2.68801C2.7234 1.97446 3.00592 1.28951 3.51048 0.784954C4.01504 0.280393 4.69998 -0.00212122 5.41354 1.19934e-05H7.23754C7.95109 -0.00212122 8.63603 0.280393 9.14059 0.784954C9.64516 1.28951 9.92767 1.97446 9.92554 2.68801V4.80001C9.92554 6.56732 8.49285 8.00001 6.72554 8.00001ZM5.41354 1.20006C4.59174 1.20006 3.92554 1.86626 3.92554 2.68806V4.80006C3.92554 5.90463 4.82097 6.80006 5.92554 6.80006H6.72554C7.83011 6.80006 8.72554 5.90463 8.72554 4.80006V2.68806C8.72554 2.29342 8.56877 1.91494 8.28971 1.63589C8.01066 1.35684 7.63218 1.20006 7.23754 1.20006H5.41354Z" fill="#A69483"/>
</svg>
