<svg width="20" height="21" viewBox="0 0 20 21" fill="none" xmlns="http://www.w3.org/2000/svg">
<path fill-rule="evenodd" clip-rule="evenodd" d="M3.38492 6.71078C4.57342 3.71423 7.35813 1.7589 10.4496 1.75023C13.7814 1.73181 16.744 3.97267 17.7826 7.29683C18.8212 10.621 17.6985 14.2691 15.0038 16.3266C12.3091 18.3841 8.65783 18.381 5.96624 16.319L3.56624 18.839C3.32222 19.0949 2.92692 19.0949 2.68291 18.839C2.43919 18.5828 2.43919 18.1677 2.68291 17.9115L5.00791 15.4702C2.83616 13.1601 2.19642 9.70734 3.38492 6.71078ZM4.49921 12.3981C5.49711 14.923 7.84602 16.5675 10.4496 16.564V16.529C13.9831 16.5243 16.8517 13.5279 16.8746 9.81773C16.8779 7.084 15.3117 4.61765 12.907 3.56986C10.5023 2.52207 7.73318 3.09944 5.89219 5.03248C4.0512 6.96553 3.50132 9.87309 4.49921 12.3981Z" fill="#A69483"/>
</svg>
