<svg width="15" height="15" viewBox="0 0 15 15" fill="none" xmlns="http://www.w3.org/2000/svg">
<path d="M5.79637 1.46399H0.659395C0.304761 1.46399 0.0172729 1.75148 0.0172729 2.10611C0.0172729 2.46075 0.304761 2.74823 0.659395 2.74823H5.79637C6.15101 2.74823 6.4385 2.46075 6.4385 2.10611C6.4385 1.75148 6.15101 1.46399 5.79637 1.46399V1.46399Z" fill="#A69483"/>
<path fill-rule="evenodd" clip-rule="evenodd" d="M2.29467 7.79135H0.659395C0.304761 7.79135 0.0172729 7.50386 0.0172729 7.14923C0.0172729 6.7946 0.304761 6.50711 0.659395 6.50711H2.29467C2.60702 5.63248 3.50343 5.1095 4.41853 5.268C5.33363 5.4265 6.00194 6.2205 6.00194 7.14923C6.00194 8.07796 5.33363 8.87196 4.41853 9.03046C3.50343 9.18896 2.60702 8.66598 2.29467 7.79135ZM4.08404 7.77422C4.42921 7.77422 4.70904 7.49439 4.70904 7.14922C4.70904 6.80404 4.42921 6.52422 4.08404 6.52422C3.91828 6.52422 3.75931 6.59006 3.6421 6.70727C3.52489 6.82449 3.45904 6.98346 3.45904 7.14922C3.45904 7.49439 3.73886 7.77422 4.08404 7.77422Z" fill="#A69483"/>
<path fill-rule="evenodd" clip-rule="evenodd" d="M10.6936 2.71426C10.4012 3.40509 9.73124 3.86063 8.98128 3.87864V3.81871C7.98846 3.82251 7.15841 3.06476 7.07198 2.0757C6.98554 1.08664 7.67157 0.196391 8.65001 0.0279258C9.62844 -0.140539 10.5727 0.469004 10.822 1.43002C10.859 1.42517 10.8964 1.42517 10.9333 1.43002H14.3152C14.6698 1.43002 14.9573 1.71751 14.9573 2.07214C14.9573 2.42677 14.6698 2.71426 14.3152 2.71426H10.8905C10.8251 2.72241 10.759 2.72241 10.6936 2.71426ZM9.60952 1.9069C9.59434 1.57159 9.31702 1.30815 8.98137 1.31019V1.34443C8.80941 1.34638 8.64586 1.4191 8.52921 1.54547C8.41257 1.67183 8.35315 1.84067 8.36494 2.01224C8.40632 2.34533 8.70342 2.58625 9.03787 2.55795C9.37233 2.52964 9.62471 2.24221 9.60952 1.9069Z" fill="#A69483"/>
<path d="M5.79635 11.8239H0.659368C0.295276 11.8239 0.00012207 12.119 0.00012207 12.4831C0.00012207 12.8472 0.295276 13.1423 0.659368 13.1423H5.79635C6.15098 13.1423 6.43847 12.8549 6.43847 12.5002C6.43847 12.1456 6.15098 11.8581 5.79635 11.8581V11.8239Z" fill="#A69483"/>
<path fill-rule="evenodd" clip-rule="evenodd" d="M11.0446 11.8239H14.3579V11.8581C14.7126 11.8581 15.0001 12.1456 15.0001 12.5003C15.0001 12.8549 14.7126 13.1424 14.3579 13.1424H10.9333C10.5416 13.9749 9.60985 14.4074 8.72117 14.1691C7.83249 13.9308 7.24209 13.0902 7.31948 12.1734C7.39688 11.2566 8.11984 10.5268 9.03589 10.4409C9.95194 10.3549 10.798 10.9375 11.0446 11.8239ZM8.63742 12.5744C8.73687 12.8076 8.96738 12.9577 9.22092 12.9542C9.56275 12.9495 9.83739 12.671 9.83735 12.3292C9.83733 12.0756 9.68411 11.8472 9.44951 11.751C9.21491 11.6548 8.94543 11.7098 8.76738 11.8904C8.58932 12.0709 8.53798 12.3411 8.63742 12.5744Z" fill="#A69483"/>
<path d="M14.358 6.5069H7.5087C7.15407 6.5069 6.86658 6.79438 6.86658 7.14902C6.86658 7.50365 7.15407 7.79114 7.5087 7.79114H14.358C14.7126 7.79114 15.0001 7.50365 15.0001 7.14902C15.0001 6.79438 14.7126 6.5069 14.358 6.5069Z" fill="#A69483"/>
</svg>
