<svg width="20" height="20" viewBox="0 0 20 20" fill="none" xmlns="http://www.w3.org/2000/svg">
<path fill-rule="evenodd" clip-rule="evenodd" d="M8.425 4.59165L14.4667 8.08332C15.2377 8.53056 15.7122 9.35448 15.7122 10.2458C15.7122 11.1372 15.2377 11.9611 14.4667 12.4083L8.425 15.9C7.65125 16.3467 6.69791 16.3466 5.9243 15.8996C5.1507 15.4526 4.67442 14.6268 4.675 13.7333V6.75832C4.67442 5.86487 5.1507 5.03902 5.9243 4.59205C6.69791 4.14508 7.65125 4.14493 8.425 4.59165ZM7.675 14.6L13.7167 11.1167C14.0275 10.9392 14.2186 10.6079 14.2167 10.25C14.2199 9.88952 14.0289 9.55521 13.7167 9.37498L7.675 5.89165C7.52389 5.80082 7.3513 5.75192 7.175 5.74998C6.61811 5.74998 6.16667 6.20143 6.16667 6.75832V13.7333C6.16667 14.0007 6.2729 14.2572 6.462 14.4463C6.6511 14.6354 6.90757 14.7417 7.175 14.7417C7.3513 14.7397 7.52389 14.6908 7.675 14.6Z" fill="#A69483"/>
</svg>
