<svg width="20" height="20" viewBox="0 0 20 20" fill="none" xmlns="http://www.w3.org/2000/svg">
<path fill-rule="evenodd" clip-rule="evenodd" d="M11.575 15.4083L5.53334 11.9167C4.76234 11.4694 4.28777 10.6455 4.28777 9.75418C4.28777 8.86285 4.76234 8.03893 5.53334 7.59168L11.575 4.10002C12.3488 3.65329 13.3021 3.65344 14.0757 4.10042C14.8493 4.54739 15.3256 5.37323 15.325 6.26668L15.325 13.2417C15.3256 14.1351 14.8493 14.961 14.0757 15.4079C13.3021 15.8549 12.3488 15.8551 11.575 15.4083ZM12.325 5.40001L6.28334 8.88335C5.97247 9.06082 5.78137 9.39206 5.78334 9.75001C5.78012 10.1105 5.97115 10.4448 6.28334 10.625L12.325 14.1083C12.4761 14.1992 12.6487 14.2481 12.825 14.25C13.3819 14.25 13.8333 13.7986 13.8333 13.2417L13.8333 6.26668C13.8333 5.99926 13.7271 5.74278 13.538 5.55368C13.3489 5.36458 13.0924 5.25835 12.825 5.25835C12.6487 5.26028 12.4761 5.30918 12.325 5.40001Z" fill="#A69483"/>
</svg>
