<svg width="13" height="16" viewBox="0 0 13 16" fill="none" xmlns="http://www.w3.org/2000/svg">
<path fill-rule="evenodd" clip-rule="evenodd" d="M12.3895 11.768L12.5815 12.68C12.7634 13.4684 12.5838 14.297 12.0916 14.9393C11.5994 15.5816 10.8461 15.9706 10.0375 16H2.61347C1.80481 15.9706 1.05152 15.5816 0.559344 14.9393C0.0671665 14.297 -0.112481 13.4684 0.069466 12.68L0.261466 11.768C0.482294 10.5334 1.54356 9.62613 2.79747 9.59998H9.85347C11.1074 9.62613 12.1686 10.5334 12.3895 11.768ZM10.0376 14.7917C10.4438 14.787 10.8261 14.5988 11.0776 14.2797V14.2877C11.3861 13.9006 11.5063 13.3963 11.4056 12.9117L11.2136 11.9997C11.107 11.3238 10.5373 10.8177 9.85356 10.7917H2.79756C2.11386 10.8177 1.54409 11.3238 1.43756 11.9997L1.24556 12.9117C1.14729 13.3938 1.26737 13.8946 1.57356 14.2797C1.82503 14.5988 2.20733 14.787 2.61356 14.7917H10.0376Z" fill="#A69483"/>
<path fill-rule="evenodd" clip-rule="evenodd" d="M6.72541 8.00001H5.92541C4.1581 8.00001 2.72541 6.56732 2.72541 4.80001V2.68801C2.72328 1.97446 3.0058 1.28951 3.51036 0.784954C4.01492 0.280393 4.69986 -0.00212122 5.41341 1.19934e-05H7.23741C7.95097 -0.00212122 8.63591 0.280393 9.14047 0.784954C9.64503 1.28951 9.92755 1.97446 9.92541 2.68801V4.80001C9.92541 6.56732 8.49273 8.00001 6.72541 8.00001ZM5.41342 1.20006C4.59162 1.20006 3.92542 1.86626 3.92542 2.68806V4.80006C3.92542 5.90463 4.82085 6.80006 5.92542 6.80006H6.72542C7.82998 6.80006 8.72542 5.90463 8.72542 4.80006V2.68806C8.72542 2.29342 8.56864 1.91494 8.28959 1.63589C8.01054 1.35684 7.63206 1.20006 7.23742 1.20006H5.41342Z" fill="#A69483"/>
</svg>
