<svg width="15" height="15" viewBox="0 0 15 15" fill="none" xmlns="http://www.w3.org/2000/svg">
<path d="M5.79625 1.46399H0.659273C0.304639 1.46399 0.0171509 1.75148 0.0171509 2.10611C0.0171509 2.46075 0.304639 2.74823 0.659273 2.74823H5.79625C6.15089 2.74823 6.43837 2.46075 6.43837 2.10611C6.43837 1.75148 6.15089 1.46399 5.79625 1.46399V1.46399Z" fill="#A69483"/>
<path fill-rule="evenodd" clip-rule="evenodd" d="M2.29455 7.79141H0.659273C0.304639 7.79141 0.0171509 7.50393 0.0171509 7.14929C0.0171509 6.79466 0.304639 6.50717 0.659273 6.50717H2.29455C2.6069 5.63254 3.50331 5.10956 4.41841 5.26806C5.33351 5.42656 6.00181 6.22056 6.00181 7.14929C6.00181 8.07802 5.33351 8.87202 4.41841 9.03052C3.50331 9.18903 2.6069 8.66604 2.29455 7.79141ZM4.08392 7.77428C4.42909 7.77428 4.70891 7.49446 4.70891 7.14928C4.70891 6.8041 4.42909 6.52428 4.08392 6.52428C3.91816 6.52428 3.75918 6.59013 3.64197 6.70734C3.52476 6.82455 3.45892 6.98352 3.45892 7.14928C3.45892 7.49446 3.73874 7.77428 4.08392 7.77428Z" fill="#A69483"/>
<path fill-rule="evenodd" clip-rule="evenodd" d="M10.6935 2.71426C10.401 3.40509 9.73112 3.86063 8.98116 3.87864V3.81871C7.98833 3.82251 7.15829 3.06476 7.07185 2.0757C6.98542 1.08664 7.67145 0.196391 8.64988 0.0279258C9.62832 -0.140539 10.5726 0.469004 10.8219 1.43002C10.8588 1.42517 10.8963 1.42517 10.9332 1.43002H14.3151C14.6697 1.43002 14.9572 1.71751 14.9572 2.07214C14.9572 2.42677 14.6697 2.71426 14.3151 2.71426H10.8904C10.825 2.72241 10.7589 2.72241 10.6935 2.71426ZM9.6094 1.9069C9.59422 1.57159 9.3169 1.30815 8.98125 1.31019V1.34443C8.80929 1.34638 8.64573 1.4191 8.52909 1.54547C8.41245 1.67183 8.35302 1.84067 8.36481 2.01224C8.4062 2.34533 8.7033 2.58625 9.03775 2.55795C9.37221 2.52964 9.62458 2.24221 9.6094 1.9069Z" fill="#A69483"/>
<path d="M5.79622 11.8239H0.659245C0.295154 11.8239 0 12.119 0 12.4831C0 12.8472 0.295154 13.1423 0.659245 13.1423H5.79622C6.15086 13.1423 6.43835 12.8549 6.43835 12.5002C6.43835 12.1456 6.15086 11.8581 5.79622 11.8581V11.8239Z" fill="#A69483"/>
<path fill-rule="evenodd" clip-rule="evenodd" d="M11.0445 11.8239H14.3578V11.8581C14.7125 11.8581 14.9999 12.1456 14.9999 12.5003C14.9999 12.8549 14.7125 13.1424 14.3578 13.1424H10.9332C10.5415 13.9749 9.60973 14.4074 8.72105 14.1691C7.83237 13.9308 7.24197 13.0902 7.31936 12.1734C7.39676 11.2566 8.11972 10.5268 9.03577 10.4409C9.95182 10.3549 10.7979 10.9375 11.0445 11.8239ZM8.6373 12.5744C8.73674 12.8076 8.96726 12.9577 9.22079 12.9542C9.56262 12.9495 9.83726 12.671 9.83723 12.3292C9.83721 12.0756 9.68399 11.8472 9.44939 11.751C9.21479 11.6548 8.94531 11.7098 8.76725 11.8904C8.5892 12.0709 8.53786 12.3411 8.6373 12.5744Z" fill="#A69483"/>
<path d="M14.3579 6.50696H7.50858C7.15394 6.50696 6.86646 6.79445 6.86646 7.14908C6.86646 7.50371 7.15394 7.7912 7.50858 7.7912H14.3579C14.7125 7.7912 15 7.50371 15 7.14908C15 6.79445 14.7125 6.50696 14.3579 6.50696Z" fill="#A69483"/>
</svg>
