<svg width="24" height="24" viewBox="0 0 24 24" fill="none" xmlns="http://www.w3.org/2000/svg">
<path fill-rule="evenodd" clip-rule="evenodd" d="M15.6243 3.00434H8.37576C7.52411 2.96081 6.68953 3.2462 6.05619 3.79753C5.42286 4.34885 5.04285 5.12079 5.00003 5.94297V19.9964C4.99884 20.2778 5.12064 20.5467 5.33549 20.737C5.55034 20.9273 5.83834 21.0213 6.12872 20.9959C6.38321 20.996 6.63064 20.9152 6.83286 20.766L11.3166 17.4776C11.74 17.1711 12.3222 17.1711 12.7456 17.4776L17.1879 20.766C17.3844 20.9111 17.6239 20.9916 17.8713 20.9959C18.1617 21.0213 18.4497 20.9273 18.6645 20.737C18.8794 20.5467 19.0012 20.2778 19 19.9964V5.94297C18.9572 5.12079 18.5772 4.34885 17.9438 3.79753C17.3105 3.2462 16.4759 2.96081 15.6243 3.00434ZM10.3536 16.2881L6.57398 19.0868L6.59469 5.94297C6.69269 5.07153 7.49128 4.43359 8.39647 4.50364H15.645C16.5502 4.43359 17.3487 5.07153 17.4467 5.94297V19.0868L13.6672 16.2881C12.6885 15.5683 11.3322 15.5683 10.3536 16.2881Z" fill="#A69483"/>
</svg>
