<svg width="24" height="24" viewBox="0 0 24 24" fill="none" xmlns="http://www.w3.org/2000/svg">
<path fill-rule="evenodd" clip-rule="evenodd" d="M3.72 3.82004L2.06 8.43004C1.69883 9.32268 1.7881 10.3344 2.3 11.15C2.73557 11.7682 3.36583 12.2224 4.09 12.44V19.24C4.10575 20.0039 4.42439 20.7302 4.97578 21.2591C5.52717 21.788 6.26613 22.0761 7.03 22.06H16.69C17.4633 22.0897 18.2163 21.808 18.7802 21.2779C19.3441 20.7478 19.6718 20.0137 19.69 19.24V12.54C20.394 12.3788 21.0282 11.9969 21.5 11.45C22.1784 10.6032 22.3467 9.45602 21.94 8.45004L20.29 3.83004C19.9009 2.84475 18.9391 2.20622 17.88 2.23004H6.13C5.07257 2.20169 4.11 2.83675 3.72 3.82004ZM10.6485 20.43H10.64V20.46C10.643 20.4501 10.6459 20.4401 10.6485 20.43ZM10.6485 20.43H13.19C13.1805 20.3537 13.1805 20.2764 13.19 20.2V18.09C13.1726 17.7727 13.0258 17.4765 12.7838 17.2705C12.5419 17.0644 12.226 16.9667 11.91 17C11.2816 16.954 10.7331 17.4222 10.68 18.05V20.19C10.68 20.2711 10.6694 20.3518 10.6485 20.43ZM7.08 20.43H9.19C9.18048 20.3537 9.18048 20.2764 9.19 20.2V18.09C9.2443 16.6175 10.4772 15.4651 11.95 15.51C13.4267 15.4594 14.6657 16.6135 14.72 18.09V20.23C14.7295 20.3064 14.7295 20.3837 14.72 20.46H16.74C17.4766 20.494 18.1023 19.9265 18.14 19.19V12.52C16.8076 12.3189 15.7376 11.3165 15.45 10C15.0978 11.5971 13.6319 12.6976 12 12.59C10.3975 12.6572 8.97747 11.5658 8.63 10C8.34864 11.3993 7.18971 12.4529 5.77 12.6V19.24C5.83116 19.9215 6.3959 20.4475 7.08 20.46V20.43ZM5.08 10.84C4.54986 10.8261 4.05873 10.5582 3.76 10.12V10.15C3.55251 9.80044 3.52645 9.37222 3.69 9.00004L5.34 4.45004C5.48638 4.15246 5.79938 3.97417 6.13 4.00004H17.88C18.1981 3.97095 18.5036 4.13153 18.66 4.41004L20.31 9.00004C20.5244 9.42445 20.4859 9.93277 20.21 10.32C19.9608 10.6263 19.6021 10.8236 19.21 10.87C19.0838 10.8848 18.9562 10.8848 18.83 10.87C18.0605 10.9121 17.3656 10.4127 17.16 9.67004C17.0074 8.82473 16.2788 8.20501 15.42 8.19004C14.5519 8.18963 13.8132 8.82222 13.68 9.68004C13.4764 10.4273 12.7725 10.9259 12 10.87C11.2212 10.9219 10.5173 10.4077 10.33 9.65004C10.1854 8.79867 9.45348 8.17196 8.59 8.16004C7.72515 8.15885 6.98759 8.7862 6.85 9.64004C6.64627 10.3928 5.93786 10.8958 5.16 10.84H5.08Z" fill="#A69483"/>
</svg>
